<svg id="visual" viewBox="0 0 900 600" width="900" height="600" xmlns="http://www.w3.org/2000/svg"
  xmlns:xlink="http://www.w3.org/1999/xlink" version="1.1">
  <defs>
    <linearGradient id="grad1_0" x1="33.3%" y1="100%" x2="100%" y2="0%">
      <stop offset="20%" stop-color="var(--clr-surface-6, hsl(225, 4%, 45%))" stop-opacity="1"></stop>
      <stop offset="80%" stop-color="var(--clr-surface-6, hsl(225, 4%, 45%))" stop-opacity="1"></stop>
    </linearGradient>
  </defs>
  <defs>
    <linearGradient id="grad1_1" x1="33.3%" y1="100%" x2="100%" y2="0%">
      <stop offset="20%" stop-color="var(--clr-surface-6, hsl(225, 4%, 45%))" stop-opacity="1"></stop>
      <stop offset="80%" stop-color="var(--clr-surface-5, hsl(255, 4%, 39%)" stop-opacity="1"></stop>
    </linearGradient>
  </defs>
  <defs>
    <linearGradient id="grad1_2" x1="33.3%" y1="100%" x2="100%" y2="0%">
      <stop offset="20%" stop-color="var(--clr-surface-4, hsl(225, 5%, 33%)" stop-opacity="1"></stop>
      <stop offset="80%" stop-color="var(--clr-surface-5, hsl(255, 4%, 39%)" stop-opacity="1"></stop>
    </linearGradient>
  </defs>
  <defs>
    <linearGradient id="grad1_3" x1="33.3%" y1="100%" x2="100%" y2="0%">
      <stop offset="20%" stop-color="var(--clr-surface-4, hsl(225, 5%, 33%)" stop-opacity="1"></stop>
      <stop offset="80%" stop-color="var(--clr-surface-3, hsl(225, 7%, 26%)" stop-opacity="1"></stop>
    </linearGradient>
  </defs>
  <defs>
    <linearGradient id="grad1_4" x1="33.3%" y1="100%" x2="100%" y2="0%">
      <stop offset="20%" stop-color="var(--clr-surface-2, hsl(225, 11%, 19%)" stop-opacity="1"></stop>
      <stop offset="80%" stop-color="var(--clr-surface-3, hsl(225, 7%, 26%)" stop-opacity="1"></stop>
    </linearGradient>
  </defs>
  <defs>
    <linearGradient id="grad1_5" x1="33.3%" y1="100%" x2="100%" y2="0%">
      <stop offset="20%" stop-color="var(--clr-surface-2, hsl(225, 11%, 19%)" stop-opacity="1"></stop>
      <stop offset="80%" stop-color="var(--clr-surface-1, hsl(225, 21%, 11%))" stop-opacity="1"></stop>
    </linearGradient>
  </defs>
  <defs>
    <linearGradient id="grad1_6" x1="33.3%" y1="100%" x2="100%" y2="0%">
      <stop offset="20%" stop-color="var(--clr-surface-1, hsl(225, 21%, 11%))" stop-opacity="1"></stop>
      <stop offset="80%" stop-color="var(--clr-surface-1, hsl(225, 21%, 11%))" stop-opacity="1"></stop>
    </linearGradient>
  </defs>
  <defs>
    <linearGradient id="grad2_0" x1="0%" y1="100%" x2="66.7%" y2="0%">
      <stop offset="20%" stop-color="var(--clr-surface-6, hsl(225, 4%, 45%))" stop-opacity="1"></stop>
      <stop offset="80%" stop-color="var(--clr-surface-6, hsl(225, 4%, 45%))" stop-opacity="1"></stop>
    </linearGradient>
  </defs>
  <defs>
    <linearGradient id="grad2_1" x1="0%" y1="100%" x2="66.7%" y2="0%">
      <stop offset="20%" stop-color="var(--clr-surface-5, hsl(255, 4%, 39%)" stop-opacity="1"></stop>
      <stop offset="80%" stop-color="var(--clr-surface-6, hsl(225, 4%, 45%))" stop-opacity="1"></stop>
    </linearGradient>
  </defs>
  <defs>
    <linearGradient id="grad2_2" x1="0%" y1="100%" x2="66.7%" y2="0%">
      <stop offset="20%" stop-color="var(--clr-surface-5, hsl(255, 4%, 39%)" stop-opacity="1"></stop>
      <stop offset="80%" stop-color="var(--clr-surface-4, hsl(225, 5%, 33%)" stop-opacity="1"></stop>
    </linearGradient>
  </defs>
  <defs>
    <linearGradient id="grad2_3" x1="0%" y1="100%" x2="66.7%" y2="0%">
      <stop offset="20%" stop-color="var(--clr-surface-3, hsl(225, 7%, 26%)" stop-opacity="1"></stop>
      <stop offset="80%" stop-color="var(--clr-surface-4, hsl(225, 5%, 33%)" stop-opacity="1"></stop>
    </linearGradient>
  </defs>
  <defs>
    <linearGradient id="grad2_4" x1="0%" y1="100%" x2="66.7%" y2="0%">
      <stop offset="20%" stop-color="var(--clr-surface-3, hsl(225, 7%, 26%)" stop-opacity="1"></stop>
      <stop offset="80%" stop-color="var(--clr-surface-2, hsl(225, 11%, 19%)" stop-opacity="1"></stop>
    </linearGradient>
  </defs>
  <defs>
    <linearGradient id="grad2_5" x1="0%" y1="100%" x2="66.7%" y2="0%">
      <stop offset="20%" stop-color="var(--clr-surface-1, hsl(225, 21%, 11%))" stop-opacity="1"></stop>
      <stop offset="80%" stop-color="var(--clr-surface-2, hsl(225, 11%, 19%)" stop-opacity="1"></stop>
    </linearGradient>
  </defs>
  <defs>
    <linearGradient id="grad2_6" x1="0%" y1="100%" x2="66.7%" y2="0%">
      <stop offset="20%" stop-color="var(--clr-surface-1, hsl(225, 21%, 11%))" stop-opacity="1"></stop>
      <stop offset="80%" stop-color="var(--clr-surface-1, hsl(225, 21%, 11%))" stop-opacity="1"></stop>
    </linearGradient>
  </defs>
  <g transform="translate(900, 600)">
    <path
      d="M-347.7 0C-333.5 -17.6 -319.3 -35.2 -319.1 -56.3C-318.9 -77.3 -332.7 -101.7 -326.7 -118.9C-320.7 -136.1 -295 -146 -282.8 -163.3C-270.6 -180.6 -272 -205.2 -256.7 -215.4C-241.5 -225.6 -209.7 -221.3 -190.1 -226.5C-170.5 -231.8 -163.2 -246.5 -153.9 -266.5C-144.6 -286.5 -133.3 -311.6 -116.4 -319.8C-99.5 -327.9 -76.9 -319 -56.6 -320.8C-36.2 -322.6 -18.1 -335.1 0 -347.7L0 0Z"
      fill="var(--clr-surface-1, hsl(225, 21%, 11%))"></path>
    <path
      d="M-289.7 0C-277.9 -14.7 -266.1 -29.4 -265.9 -46.9C-265.7 -64.4 -277.2 -84.8 -272.3 -99.1C-267.3 -113.4 -245.8 -121.7 -235.7 -136.1C-225.5 -150.5 -226.6 -171 -213.9 -179.5C-201.2 -188 -174.7 -184.4 -158.4 -188.8C-142.1 -193.1 -136 -205.4 -128.2 -222.1C-120.5 -238.7 -111.1 -259.7 -97 -266.5C-82.9 -273.2 -64.1 -265.8 -47.1 -267.3C-30.2 -268.8 -15.1 -279.3 0 -289.7L0 0Z"
      fill="var(--clr-surface-2, hsl(225, 11%, 19%)"></path>
    <path
      d="M-231.8 0C-222.3 -11.7 -212.9 -23.5 -212.7 -37.5C-212.6 -51.5 -221.8 -67.8 -217.8 -79.3C-213.8 -90.7 -196.7 -97.3 -188.5 -108.9C-180.4 -120.4 -181.3 -136.8 -171.2 -143.6C-161 -150.4 -139.8 -147.5 -126.7 -151C-113.7 -154.5 -108.8 -164.3 -102.6 -177.7C-96.4 -191 -88.9 -207.8 -77.6 -213.2C-66.3 -218.6 -51.3 -212.6 -37.7 -213.8C-24.1 -215.1 -12.1 -223.4 0 -231.8L0 0Z"
      fill="var(--clr-surface-3, hsl(225, 7%, 26%)"></path>
    <path
      d="M-173.8 0C-166.7 -8.8 -159.6 -17.6 -159.5 -28.1C-159.4 -38.6 -166.3 -50.9 -163.4 -59.5C-160.4 -68 -147.5 -73 -141.4 -81.6C-135.3 -90.3 -136 -102.6 -128.4 -107.7C-120.7 -112.8 -104.8 -110.7 -95 -113.3C-85.2 -115.9 -81.6 -123.3 -76.9 -133.2C-72.3 -143.2 -66.6 -155.8 -58.2 -159.9C-49.7 -163.9 -38.4 -159.5 -28.3 -160.4C-18.1 -161.3 -9.1 -167.6 0 -173.8L0 0Z"
      fill="var(--clr-surface-4, hsl(225, 5%, 33%)"></path>
    <path
      d="M-115.9 0C-111.2 -5.9 -106.4 -11.7 -106.4 -18.8C-106.3 -25.8 -110.9 -33.9 -108.9 -39.6C-106.9 -45.4 -98.3 -48.7 -94.3 -54.4C-90.2 -60.2 -90.7 -68.4 -85.6 -71.8C-80.5 -75.2 -69.9 -73.8 -63.4 -75.5C-56.8 -77.3 -54.4 -82.2 -51.3 -88.8C-48.2 -95.5 -44.4 -103.9 -38.8 -106.6C-33.2 -109.3 -25.6 -106.3 -18.9 -106.9C-12.1 -107.5 -6 -111.7 0 -115.9L0 0Z"
      fill="var(--clr-surface-5, hsl(255, 4%, 39%)"></path>
    <path
      d="M-57.9 0C-55.6 -2.9 -53.2 -5.9 -53.2 -9.4C-53.1 -12.9 -55.4 -17 -54.5 -19.8C-53.5 -22.7 -49.2 -24.3 -47.1 -27.2C-45.1 -30.1 -45.3 -34.2 -42.8 -35.9C-40.2 -37.6 -34.9 -36.9 -31.7 -37.8C-28.4 -38.6 -27.2 -41.1 -25.6 -44.4C-24.1 -47.7 -22.2 -51.9 -19.4 -53.3C-16.6 -54.6 -12.8 -53.2 -9.4 -53.5C-6 -53.8 -3 -55.9 0 -57.9L0 0Z"
      fill="var(--clr-surface-6, hsl(225, 4%, 45%))"></path>
  </g>
  <g transform="translate(0, 0)">
    <path
      d="M347.7 0C346.7 20 345.7 40 342.4 60.4C339.1 80.7 333.4 101.5 319 116.1C304.5 130.7 281.3 139.3 273.2 157.7C265.1 176.2 272.1 204.5 264 221.5C255.9 238.4 232.7 244 216 257.4C199.3 270.8 189.1 292 170.6 295.4C152 298.9 125 284.5 106.1 291.6C87.2 298.7 76.3 327.2 60 340.2C43.6 353.1 21.8 350.4 0 347.7L0 0Z"
      fill="var(--clr-surface-1, hsl(225, 21%, 11%))"></path>
    <path
      d="M289.7 0C288.9 16.7 288.1 33.3 285.3 50.3C282.6 67.3 277.8 84.6 265.8 96.7C253.8 108.9 234.4 116.1 227.6 131.4C220.9 146.8 226.7 170.4 220 184.6C213.2 198.7 193.9 203.3 180 214.5C166.1 225.7 157.6 243.3 142.1 246.2C126.7 249.1 104.2 237.1 88.4 243C72.7 248.9 63.6 272.7 50 283.5C36.4 294.3 18.2 292 0 289.7L0 0Z"
      fill="var(--clr-surface-2, hsl(225, 11%, 19%)"></path>
    <path
      d="M231.8 0C231.1 13.3 230.5 26.7 228.3 40.2C226 53.8 222.3 67.6 212.6 77.4C203 87.1 187.5 92.8 182.1 105.1C176.7 117.4 181.4 136.4 176 147.7C170.6 159 155.1 162.7 144 171.6C132.9 180.5 126.1 194.7 113.7 197C101.3 199.2 83.4 189.7 70.7 194.4C58.1 199.1 50.9 218.2 40 226.8C29.1 235.4 14.5 233.6 0 231.8L0 0Z"
      fill="var(--clr-surface-3, hsl(225, 7%, 26%)"></path>
    <path
      d="M173.8 0C173.3 10 172.9 20 171.2 30.2C169.5 40.4 166.7 50.7 159.5 58C152.3 65.4 140.6 69.6 136.6 78.9C132.5 88.1 136 102.3 132 110.7C127.9 119.2 116.3 122 108 128.7C99.6 135.4 94.6 146 85.3 147.7C76 149.4 62.5 142.2 53.1 145.8C43.6 149.3 38.2 163.6 30 170.1C21.8 176.6 10.9 175.2 0 173.8L0 0Z"
      fill="var(--clr-surface-4, hsl(225, 5%, 33%)"></path>
    <path
      d="M115.9 0C115.6 6.7 115.2 13.3 114.1 20.1C113 26.9 111.1 33.8 106.3 38.7C101.5 43.6 93.8 46.4 91.1 52.6C88.4 58.7 90.7 68.2 88 73.8C85.3 79.5 77.6 81.3 72 85.8C66.4 90.3 63 97.3 56.9 98.5C50.7 99.6 41.7 94.8 35.4 97.2C29.1 99.6 25.4 109.1 20 113.4C14.5 117.7 7.3 116.8 0 115.9L0 0Z"
      fill="var(--clr-surface-5, hsl(255, 4%, 39%)"></path>
    <path
      d="M57.9 0C57.8 3.3 57.6 6.7 57.1 10.1C56.5 13.5 55.6 16.9 53.2 19.3C50.8 21.8 46.9 23.2 45.5 26.3C44.2 29.4 45.3 34.1 44 36.9C42.6 39.7 38.8 40.7 36 42.9C33.2 45.1 31.5 48.7 28.4 49.2C25.3 49.8 20.8 47.4 17.7 48.6C14.5 49.8 12.7 54.5 10 56.7C7.3 58.9 3.6 58.4 0 57.9L0 0Z"
      fill="var(--clr-surface-6, hsl(225, 4%, 45%))"></path>
  </g>
</svg>
